<svg version="1.1" id="Layer_1" xmlns="http://www.w3.org/2000/svg" xmlns:xlink="http://www.w3.org/1999/xlink" x="0px" y="0px"
	 width="100%" viewBox="0 0 976 976" enable-background="new 0 0 976 976" xml:space="preserve">
<path fill="#000000" opacity="1.000000" stroke="none" 
	d="
M576.554077,194.325363 
	C584.392212,195.599350 591.739441,197.097824 598.479614,200.584106 
	C600.859802,201.815216 603.302490,201.651535 605.783875,201.713730 
	C613.222595,201.900177 619.291016,204.714218 623.795166,210.807266 
	C636.694336,228.257004 648.580078,246.341080 657.974243,265.944641 
	C659.517212,269.164429 661.112000,269.816467 664.524719,269.014343 
	C676.211304,266.267517 687.942627,266.056183 699.561829,269.643433 
	C704.406311,271.139099 708.838196,273.408936 712.551941,276.880951 
	C719.016724,282.925018 718.492981,290.960083 711.163208,295.949982 
	C702.612976,301.770721 692.683716,303.198212 682.706177,304.246368 
	C680.086670,304.521515 677.401245,304.295166 674.415466,306.265442 
	C688.639282,323.837463 704.597900,339.775360 718.864380,357.886353 
	C713.572754,360.306335 708.716309,360.417084 704.083618,361.196594 
	C670.465271,366.853088 636.817810,372.336700 603.180359,377.879761 
	C588.247559,380.340485 573.347046,383.020844 558.374451,385.208771 
	C547.575134,386.786835 547.834778,388.422211 551.372437,395.323883 
	C551.654114,395.873260 551.601440,396.594025 551.800171,397.835144 
	C510.100311,397.835144 468.655334,397.835144 426.989746,397.835144 
	C427.046326,397.010986 426.964874,396.332825 427.152802,395.740143 
	C429.857239,387.210907 429.784149,387.070160 420.641113,385.562286 
	C391.918060,380.825226 363.188507,376.127502 334.470917,371.357513 
	C312.481689,367.705139 290.507355,363.962982 268.524414,360.272491 
	C266.889343,359.997986 265.207703,359.901123 263.031891,357.688263 
	C277.799316,340.681122 292.628540,323.602844 307.845703,306.077759 
	C302.319458,303.576385 297.042419,304.364838 292.087616,303.416138 
	C285.510406,302.156799 279.015472,300.790070 273.129669,297.469788 
	C262.977478,291.742859 262.112793,281.850464 271.609467,275.086609 
	C281.668335,267.922333 293.328796,266.140289 305.428864,267.114288 
	C309.733398,267.460815 314.054199,268.084198 318.256073,269.060944 
	C321.134705,269.730072 322.564972,268.861603 323.757721,266.379486 
	C333.102753,246.932846 344.901245,229.009460 357.590851,211.611588 
	C362.290649,205.167969 368.270599,201.453430 376.152252,201.813538 
	C382.728973,202.114014 387.776794,198.123520 393.716827,196.687134 
	C420.535278,190.202118 447.706970,186.934586 475.285583,186.723785 
	C498.785278,186.544174 522.272034,186.780792 545.694946,188.825592 
	C555.980103,189.723480 566.052917,192.071732 576.554077,194.325363 
M437.460449,306.768097 
	C466.361145,308.576996 495.193420,310.145721 524.231018,308.038971 
	C564.235657,305.136597 604.346069,303.702576 644.403931,301.507172 
	C648.409241,301.287659 652.615417,301.561462 656.456177,299.951172 
	C656.347473,298.950500 656.402588,298.418518 656.225952,297.979858 
	C646.270020,273.259613 633.335999,250.250534 616.489502,229.546494 
	C612.401978,224.522934 606.927185,221.974976 600.267639,222.226730 
	C588.122192,222.685852 575.944336,222.671158 563.835999,223.591568 
	C556.188110,224.172943 548.535583,224.310196 540.895203,224.662186 
	C515.982544,225.809891 491.094574,227.557037 466.097900,226.068222 
	C438.024353,224.396133 409.909607,223.405289 381.809204,222.202209 
	C374.618988,221.894379 368.974884,225.073776 364.577362,230.642212 
	C352.137939,246.393753 341.684479,263.391357 333.103973,281.512360 
	C330.293518,287.447723 327.135162,293.316467 325.387421,300.857025 
	C362.834167,302.841766 399.661987,304.793671 437.460449,306.768097 
z"/>
<path fill="#000000" opacity="1.000000" stroke="none" 
	d="
M734.539917,412.619995 
	C736.489197,429.163574 736.493713,445.281372 734.918884,461.381409 
	C733.574219,475.127777 731.270752,488.714355 727.635376,502.078247 
	C726.700073,505.516296 725.193359,506.487976 721.743896,506.375092 
	C686.799744,505.231537 651.851501,504.200470 616.900818,503.276306 
	C613.003845,503.173279 611.022339,501.732178 609.596375,498.051941 
	C597.507629,466.852936 585.217957,435.731812 573.013367,404.577637 
	C572.541748,403.373749 571.770081,402.178223 572.430908,400.204102 
	C579.757080,397.980469 587.696167,397.198242 595.493408,395.887268 
	C631.564209,389.822479 667.666138,383.942261 703.757935,378.002716 
	C710.316406,376.923431 716.886536,375.913910 723.438416,374.796417 
	C726.377502,374.295074 727.830383,375.018005 728.632507,378.302307 
	C731.360107,389.470093 733.451111,400.719086 734.539917,412.619995 
M640.552185,476.525269 
	C641.129028,477.717194 641.576904,478.995148 642.304688,480.086365 
	C645.655457,485.110352 650.445129,487.259644 656.388550,486.598816 
	C661.727478,486.005188 667.207886,481.197418 668.359924,475.970184 
	C669.626526,470.222687 668.395630,465.133636 663.619934,461.222015 
	C658.836304,457.303894 652.792664,456.571350 647.402588,459.613159 
	C641.078430,463.182007 639.340027,468.883423 640.552185,476.525269 
z"/>
<path fill="#000000" opacity="1.000000" stroke="none" 
	d="
M332.979828,504.221680 
	C309.019531,504.907806 285.551697,505.494263 262.093842,506.353058 
	C257.423126,506.524078 255.303024,505.479767 253.928635,500.431549 
	C248.325119,479.849396 246.411423,458.810272 246.132263,437.695251 
	C245.874908,418.228210 248.194122,398.869354 252.955780,379.878601 
	C253.878464,376.198669 255.061310,374.738556 259.340363,375.476166 
	C291.281586,380.982117 323.276825,386.173950 355.249725,391.496796 
	C370.820740,394.089050 386.353760,396.926239 401.960419,399.277985 
	C406.842224,400.013672 407.160217,401.719299 405.523712,405.853699 
	C393.271332,436.807556 381.168427,467.820770 369.113495,498.852264 
	C367.939392,501.874603 366.364380,503.335693 362.934875,503.370483 
	C353.113312,503.470215 343.295258,503.910980 332.979828,504.221680 
M272.050049,421.319489 
	C268.558228,423.128326 267.224915,426.718872 265.274933,429.743439 
	C262.629486,433.846680 259.675354,437.576904 255.551743,440.290527 
	C248.286972,445.071289 246.550461,454.939667 252.236618,461.520020 
	C259.146545,469.516571 268.099213,473.353180 278.751251,472.962433 
	C280.980957,472.880676 283.147369,472.334198 284.691650,470.723145 
	C289.395111,465.816345 294.688141,461.418488 298.119171,455.384583 
	C299.126373,453.613281 300.164154,451.843628 299.531586,449.758759 
	C297.949371,444.543945 295.809967,439.572571 290.158112,437.629700 
	C284.030029,435.523071 279.964172,431.708710 278.084320,425.424988 
	C277.359985,423.003693 275.967957,420.792175 272.050049,421.319489 
M336.710419,480.034698 
	C340.246429,473.035034 339.369324,466.531128 334.255432,461.831207 
	C329.603241,457.555511 322.444946,456.790405 317.129852,460.089752 
	C311.763092,463.421143 309.636597,468.366089 310.309814,474.544678 
	C310.867126,479.659149 315.555878,485.336243 320.472443,486.425385 
	C326.865356,487.841583 332.339355,486.191956 336.710419,480.034698 
z"/>
<path fill="#000000" opacity="1.000000" stroke="none" 
	d="
M483.075195,526.025024 
	C480.448181,519.653564 475.677338,517.131897 469.467712,517.344788 
	C465.435242,517.483154 463.282471,516.742798 462.439453,511.995483 
	C460.733551,502.388977 449.637909,496.915161 440.190216,500.226196 
	C438.335022,500.876373 436.786285,502.408569 434.347443,502.202972 
	C433.998383,501.649139 433.504272,501.000092 433.149506,500.282227 
	C426.833740,487.502136 413.720947,485.389099 403.785461,495.697601 
	C400.021667,499.602722 396.611694,503.848907 392.604156,508.439392 
	C387.465973,499.683350 382.296448,492.762268 387.129883,481.796295 
	C396.113251,461.414917 403.325470,440.247955 411.088440,419.338837 
	C412.289917,416.102814 414.073425,415.011414 417.344971,415.024017 
	C437.501312,415.101868 457.658173,415.043762 477.814758,415.079163 
	C479.385651,415.081909 481.191132,414.659302 482.708313,416.903381 
	C476.275543,422.270599 469.769958,427.613983 463.362701,433.072784 
	C458.677246,437.064667 453.896301,440.984314 449.559937,445.336700 
	C443.016846,451.904053 442.424011,461.369476 447.650330,468.609070 
	C453.009247,476.032440 462.304626,478.389496 470.728424,474.044495 
	C480.080994,469.220428 488.318329,462.632141 496.952759,456.684113 
	C504.291168,451.628876 504.345245,451.399170 511.280853,457.092102 
	C531.102234,473.362122 550.823364,489.754211 570.572815,506.111694 
	C571.596802,506.959808 572.567688,507.885315 573.478821,508.854187 
	C577.779053,513.427307 578.137878,518.951965 574.451477,523.243469 
	C570.598694,527.728699 564.712952,528.358948 559.744324,524.338928 
	C547.703308,514.596680 535.825439,504.653076 523.866089,494.809631 
	C521.939026,493.223511 520.004089,491.627563 517.939758,490.233093 
	C515.983093,488.911346 513.813843,488.548981 512.147522,490.694275 
	C510.482788,492.837524 511.942474,494.574341 513.472473,495.863556 
	C522.639221,503.587372 531.881409,511.221924 541.109009,518.873413 
	C545.339905,522.381592 549.657471,525.788147 553.819763,529.375488 
	C557.065186,532.172607 559.572205,535.519592 559.209290,540.114868 
	C558.570679,548.199646 549.026367,552.360107 542.223816,547.172058 
	C534.021362,540.916260 526.247620,534.097656 518.298218,527.510742 
	C513.424988,523.472839 508.606445,519.367859 503.689575,515.384033 
	C501.734253,513.799744 499.454926,512.010193 497.160950,514.672546 
	C494.939423,517.250793 496.710083,519.437439 498.673279,521.094971 
	C508.086792,529.042847 517.598267,536.874512 527.046265,544.781799 
	C528.956909,546.380920 530.913452,547.978638 532.552551,549.838135 
	C536.256470,554.040283 536.334167,559.599243 532.968689,563.511719 
	C529.460205,567.590576 523.198486,568.976074 518.970886,565.608093 
	C512.757690,560.658203 505.104706,557.150635 502.566010,548.267151 
	C501.159912,543.346924 496.715515,540.071655 491.474731,539.153503 
	C487.445526,538.447571 485.322937,536.834290 485.127014,532.542542 
	C485.031982,530.461243 483.895172,528.427551 483.075195,526.025024 
z"/>
<path fill="#000000" opacity="1.000000" stroke="none" 
	d="
M531.219666,462.793121 
	C524.776184,457.497833 518.614258,452.413269 512.417480,447.371643 
	C506.574127,442.617554 503.904816,442.279083 497.622406,446.350861 
	C489.385681,451.689270 481.356750,457.348022 473.227966,462.853516 
	C471.576691,463.971924 469.943207,465.141846 468.190338,466.080414 
	C462.840607,468.944977 457.768127,468.119781 454.801514,464.018280 
	C451.412048,459.332123 451.860474,453.750031 456.557892,449.715363 
	C465.644958,441.910278 474.922821,434.324158 484.220917,426.769470 
	C488.457428,423.327332 492.394196,419.507660 497.664734,417.401611 
	C504.428070,414.699005 511.502014,415.462769 518.396545,415.294434 
	C533.194580,414.933105 548.011902,415.419556 562.821350,415.418304 
	C565.191467,415.418091 566.064941,416.683807 566.762512,418.469360 
	C575.840149,441.705353 584.898560,464.948914 593.993774,488.178009 
	C595.534912,492.114044 593.794006,495.260529 591.880981,498.467926 
	C586.164429,508.052185 586.147766,508.111389 577.683777,501.154785 
	C562.258057,488.476227 546.882507,475.736694 531.219666,462.793121 
z"/>
<path fill="#000000" opacity="1.000000" stroke="none" 
	d="
M577.496826,629.666260 
	C587.772034,654.301392 588.023621,678.052551 572.038696,700.008789 
	C563.018616,712.398560 549.138550,716.601929 534.521362,718.205566 
	C522.419861,719.533142 510.242188,718.749329 498.099579,718.970276 
	C494.027649,719.044312 492.604034,717.601196 492.618958,713.455750 
	C492.743744,678.829590 492.690582,644.202881 492.679108,609.576294 
	C492.678192,606.829956 492.454315,603.944397 496.469604,604.019470 
	C511.753174,604.305237 527.095520,602.795288 542.301208,605.487732 
	C557.548340,608.187439 569.620911,615.554688 577.496826,629.666260 
M514.631958,617.001587 
	C511.550873,617.455078 507.207275,615.433899 507.227112,621.463623 
	C507.314728,648.101074 507.283264,674.739075 507.209747,701.376648 
	C507.201111,704.505798 508.244324,705.989868 511.521759,705.903687 
	C518.177185,705.728760 524.859192,706.043457 531.490784,705.585571 
	C549.235657,704.360352 562.349121,693.931519 567.056091,677.623840 
	C569.546448,668.995789 569.308289,660.124817 568.544067,651.358887 
	C567.017334,633.847717 556.518250,622.195374 539.458191,618.289612 
	C531.574951,616.484741 523.564026,617.164734 514.631958,617.001587 
z"/>
<path fill="#000000" opacity="1.000000" stroke="none" 
	d="
M321.871338,645.385742 
	C314.298370,645.426392 307.657684,647.582642 301.265503,650.479736 
	C298.050751,651.936829 296.646790,651.152344 295.271759,647.948547 
	C290.562103,636.975159 290.413147,636.957642 302.028839,633.449951 
	C312.512054,630.284363 323.181946,629.014404 334.022644,631.363464 
	C348.767975,634.558533 355.921173,642.790100 356.189850,657.898376 
	C356.521515,676.547546 356.197754,695.207642 356.339661,713.861633 
	C356.368256,717.618896 354.799591,718.756165 351.341003,718.916748 
	C342.535278,719.325562 342.480164,719.375183 339.768677,710.979614 
	C339.471466,710.059387 339.059021,709.176392 338.762390,708.432556 
	C337.491730,708.126587 336.935089,708.821106 336.398773,709.412354 
	C326.410522,720.423218 313.800781,722.036621 300.219818,719.013123 
	C291.785339,717.135437 286.214844,711.593506 283.737457,703.224304 
	C278.033997,683.956909 288.192322,670.069397 310.018829,666.654297 
	C317.474823,665.487732 324.971985,666.012695 332.422760,665.158875 
	C335.909088,664.759399 336.867706,663.381836 336.813263,660.089050 
	C336.655365,650.538330 332.493561,646.195801 321.871338,645.385742 
M322.413147,704.205994 
	C330.028503,702.114258 334.715576,697.158630 336.403046,689.503784 
	C338.537781,679.820312 337.129974,678.148376 327.408875,678.293457 
	C326.411255,678.308350 325.408447,678.263794 324.416870,678.349243 
	C318.940308,678.821411 313.456879,679.369873 308.594757,682.247742 
	C303.834656,685.065247 301.419189,691.148315 302.789307,696.468689 
	C304.247589,702.131470 307.525085,704.610535 314.160797,704.813354 
	C316.641693,704.889221 319.133911,704.595703 322.413147,704.205994 
z"/>
<path fill="#000000" opacity="1.000000" stroke="none" 
	d="
M242.283203,619.991821 
	C228.872513,618.162231 216.052261,624.644592 210.401413,636.393188 
	C203.098160,651.577393 203.135391,667.458313 208.389511,683.043152 
	C213.130066,697.104675 224.952454,703.901733 239.934372,703.200562 
	C247.310730,702.855225 254.431244,701.396057 261.504333,699.481262 
	C263.086670,699.052795 264.632294,698.260071 266.902618,699.191711 
	C267.580597,703.686829 267.327026,708.460327 267.045380,713.215942 
	C266.923584,715.272400 265.066467,715.757080 263.495728,716.232178 
	C247.013809,721.217224 230.412811,722.403320 214.013550,716.320251 
	C200.812759,711.423523 192.403732,701.398987 188.198883,688.262207 
	C182.966415,671.914856 182.467712,655.255066 187.463074,638.664429 
	C193.874695,617.370178 210.715240,604.072021 232.876633,602.725525 
	C244.491882,602.019775 255.758026,603.635437 266.661316,607.822754 
	C270.193024,609.179077 272.029053,610.645508 269.673187,614.713379 
	C267.618195,618.261597 266.814758,622.482178 264.158539,626.138428 
	C256.993744,624.053223 250.349594,620.188049 242.283203,619.991821 
z"/>
<path fill="#000000" opacity="1.000000" stroke="none" 
	d="
M616.548828,680.104004 
	C618.009399,700.893494 630.644287,710.627563 651.083984,707.354980 
	C657.617249,706.308899 663.908936,704.360718 670.183716,702.460754 
	C673.245850,712.118469 671.868225,714.844177 663.065125,717.545898 
	C652.670959,720.735962 642.068848,721.383484 631.525757,718.999756 
	C615.540405,715.385559 606.426147,704.700134 602.994446,689.049500 
	C600.561218,677.952820 601.321838,666.901489 604.788025,656.060181 
	C610.010437,639.726074 625.882812,629.146790 642.440857,630.967041 
	C660.897949,632.996033 672.477051,644.565979 674.314331,662.918701 
	C674.694580,666.717224 674.771545,670.545288 675.039978,674.356079 
	C675.267395,677.583374 673.684326,678.877625 670.593811,678.859924 
	C654.950623,678.770325 639.307251,678.706726 623.663879,678.663086 
	C621.273315,678.656433 618.676575,677.507629 616.548828,680.104004 
M626.539917,646.960205 
	C621.338623,650.649780 619.016296,656.084656 617.502258,661.981384 
	C616.619019,665.421570 617.968750,666.809998 621.572327,666.768738 
	C632.702942,666.641418 643.838501,666.595703 654.966980,666.800110 
	C659.245239,666.878662 660.077881,665.034485 659.463684,661.315735 
	C656.737671,644.811218 642.619019,638.337463 626.539917,646.960205 
z"/>
<path fill="#000000" opacity="1.000000" stroke="none" 
	d="
M736.230652,715.419434 
	C725.672852,721.190857 714.951477,721.781433 704.067993,718.078491 
	C694.683228,714.885437 689.250732,706.206665 688.972473,694.937683 
	C688.716614,684.571472 694.860168,675.690552 705.336792,671.561401 
	C715.910706,667.393799 727.034912,666.775391 738.234924,666.707825 
	C744.673523,666.669006 744.932434,666.340149 744.658752,659.844727 
	C744.099976,646.583374 735.254578,640.649597 720.328125,643.684387 
	C715.599487,644.645874 710.939575,646.008545 706.579590,648.127502 
	C703.842041,649.458069 701.951294,648.983215 701.418701,645.934631 
	C700.908142,643.012390 696.239014,639.590637 701.699707,637.127747 
	C714.812134,631.213684 728.399597,628.866089 742.473389,633.298584 
	C752.262878,636.381653 758.016174,644.123169 758.189819,655.274048 
	C758.498291,675.091187 758.312805,694.916138 758.329346,714.737793 
	C758.330933,716.626465 758.253113,719.043640 755.737244,718.572266 
	C752.976501,718.054993 749.174316,720.855042 747.480652,716.351624 
	C746.503601,713.753845 746.668396,710.801025 744.984863,708.161072 
	C742.089905,710.575012 739.311584,712.891724 736.230652,715.419434 
M726.124084,707.665222 
	C741.302124,704.760803 745.020447,691.835022 744.580322,680.307678 
	C744.514771,678.590942 743.846069,677.354614 741.956299,677.336060 
	C731.778870,677.236206 721.542664,677.182922 712.015564,681.386780 
	C705.625122,684.206604 703.215698,689.849243 704.261292,697.626038 
	C705.010681,703.199219 708.651001,706.337708 715.437195,708.018311 
	C718.851379,708.863831 722.029541,708.325195 726.124084,707.665222 
z"/>
<path fill="#000000" opacity="1.000000" stroke="none" 
	d="
M433.305054,641.035400 
	C433.113190,643.952148 432.978119,646.437012 431.426086,648.750305 
	C426.991455,648.614502 422.550964,647.753296 418.104675,648.875793 
	C407.396118,651.579285 400.569031,659.455444 400.281006,670.667053 
	C399.921967,684.642334 399.925079,698.634338 400.149780,712.613037 
	C400.227478,717.447388 398.584869,718.994202 393.842957,718.971680 
	C380.641235,718.908997 380.642151,719.068726 380.636963,705.752319 
	C380.628143,683.111023 380.737000,660.468445 380.510651,637.829346 
	C380.462555,633.017456 381.955353,630.992737 386.749084,631.702026 
	C386.911987,631.726074 387.081604,631.705627 387.248077,631.704895 
	C396.048431,631.667603 396.068573,631.664795 397.276001,640.373596 
	C397.481995,641.859558 397.459351,643.373047 398.597992,644.678833 
	C400.629730,644.307251 401.197052,642.328064 402.318390,641.033813 
	C409.241089,633.043945 417.885773,629.525452 428.453491,630.224182 
	C433.234924,630.540344 435.133606,632.331360 433.627747,637.122498 
	C433.287628,638.204590 433.409271,639.431702 433.305054,641.035400 
z"/>
<path fill="#000000" opacity="1.000000" stroke="none" 
	d="
M797.970947,655.000000 
	C797.975098,674.484985 798.008240,693.470154 797.944214,712.454895 
	C797.936890,714.634216 798.862549,717.783997 795.882202,718.462036 
	C792.216492,719.295898 788.248047,719.664246 784.651367,717.922913 
	C783.351990,717.293823 783.722961,715.540161 783.722351,714.241455 
	C783.704041,676.604431 783.732849,638.967407 783.656311,601.330566 
	C783.649170,597.821960 785.064697,596.752441 788.416321,596.677917 
	C797.948486,596.466125 797.953430,596.353699 797.959167,606.038147 
	C797.968811,622.192078 797.967712,638.346069 797.970947,655.000000 
z"/>
<path fill="#000000" opacity="1.000000" stroke="none" 
	d="
M446.629883,507.221741 
	C455.483948,510.105927 457.817566,516.866760 452.561829,523.869507 
	C447.864258,530.128479 443.029694,536.289185 438.106689,542.372742 
	C434.493835,546.837341 427.870422,547.751221 423.834564,544.589722 
	C419.629456,541.295654 418.713989,535.681946 422.237762,530.792053 
	C427.198792,523.907776 432.570007,517.317139 437.827759,510.649750 
	C439.947418,507.961823 442.888672,506.994110 446.629883,507.221741 
z"/>
<path fill="#000000" opacity="1.000000" stroke="none" 
	d="
M447.881958,561.289062 
	C442.962738,556.340637 442.083801,552.118591 445.424805,547.344299 
	C449.895355,540.955750 454.680603,534.777100 459.542450,528.677002 
	C462.083771,525.488464 465.562683,524.063599 469.750519,525.063232 
	C473.833466,526.037720 476.314758,528.496948 477.553864,532.578674 
	C478.408295,535.393372 477.341064,537.592896 475.898773,539.537476 
	C470.956024,546.201538 465.951904,552.833801 460.659485,559.219910 
	C457.337708,563.228149 453.038086,564.395752 447.881958,561.289062 
z"/>
<path fill="#000000" opacity="1.000000" stroke="none" 
	d="
M397.175232,524.238525 
	C396.021301,519.982056 397.205902,516.635315 399.534698,513.585510 
	C402.663361,509.488220 405.713440,505.324524 408.990326,501.348419 
	C412.646576,496.911987 418.854004,496.267578 423.231537,499.640076 
	C427.609863,503.013306 428.468414,508.519745 425.031128,513.380493 
	C421.865143,517.857544 418.466583,522.181580 414.988556,526.423889 
	C409.311737,533.348145 401.792786,532.529480 397.175232,524.238525 
z"/>
<path fill="#000000" opacity="1.000000" stroke="none" 
	d="
M485.295654,574.481140 
	C479.570709,577.955933 474.939087,577.713196 471.441589,574.026367 
	C467.893860,570.286499 467.722900,565.373413 471.210724,560.362427 
	C473.587280,556.947876 476.122070,553.630371 478.769165,550.420410 
	C482.276581,546.167236 488.509247,545.311768 492.607788,548.330566 
	C497.077271,551.622559 498.139557,557.657654 494.772064,562.409424 
	C491.888916,566.477783 488.652374,570.295837 485.295654,574.481140 
z"/>
<path fill="#000000" opacity="1.000000" stroke="none" 
	d="
M778.345825,771.122559 
	C778.348938,777.590942 778.420410,783.578430 778.307434,789.562439 
	C778.273438,791.363220 779.249817,793.839355 776.356934,794.504150 
	C773.804138,795.090698 772.411377,793.459290 771.156433,791.536011 
	C767.613647,786.106567 764.010681,780.716187 760.401306,775.330566 
	C759.976807,774.697083 759.364319,774.189636 758.061890,772.786499 
	C758.061890,779.246948 758.103760,784.668762 758.039734,790.089294 
	C758.016602,792.049194 758.199707,794.420044 755.179077,794.303833 
	C752.424438,794.197876 752.819214,791.945312 752.804810,790.205261 
	C752.741577,782.556824 752.725769,774.907410 752.784119,767.259094 
	C752.797180,765.547668 752.283142,763.398499 754.851746,762.823975 
	C757.125610,762.315308 758.662842,763.389343 759.876160,765.202087 
	C764.018311,771.391113 768.182861,777.565186 773.237122,785.080566 
	C773.237122,778.544495 773.157349,773.493591 773.273743,768.447266 
	C773.325073,766.223083 771.883972,762.763367 775.930725,762.773438 
	C779.760559,762.782898 777.853394,766.192505 778.305115,768.152954 
	C778.487183,768.943115 778.340454,769.808960 778.345825,771.122559 
z"/>
<path fill="#000000" opacity="1.000000" stroke="none" 
	d="
M547.096191,794.337524 
	C537.115662,791.768005 533.821838,779.974182 537.037903,771.819397 
	C540.186340,763.836121 548.444336,759.963684 557.050903,762.677307 
	C561.402527,764.049377 564.166626,766.728638 564.747192,771.404541 
	C562.466187,773.538513 560.719055,773.441956 559.205200,770.605652 
	C557.392578,767.209534 554.199097,766.370239 550.697510,766.745422 
	C546.800659,767.163025 543.862183,769.031555 542.377197,772.918091 
	C540.424133,778.029724 541.184692,784.384521 544.508606,787.393372 
	C548.117798,790.660583 552.424622,790.476013 556.731079,789.216309 
	C558.868591,788.591125 560.798706,787.413574 560.562927,784.693481 
	C560.292419,781.572815 557.780579,782.590942 555.969116,782.317322 
	C554.203674,782.050537 551.474060,783.180786 551.617615,779.860107 
	C551.760681,776.551819 554.515503,778.086426 556.216187,777.707336 
	C556.533081,777.636658 556.901123,777.619812 557.208252,777.708008 
	C560.052124,778.524658 564.422852,775.475281 565.622009,780.268005 
	C567.454346,787.591309 565.351196,791.590637 559.200623,793.792542 
	C555.388000,795.157532 551.482666,795.851379 547.096191,794.337524 
z"/>
<path fill="#000000" opacity="1.000000" stroke="none" 
	d="
M437.221344,761.849670 
	C447.189362,762.602112 452.649872,767.507935 453.350769,775.923523 
	C454.180878,785.890625 450.250122,792.484558 442.259430,794.529541 
	C433.673096,796.726929 426.009064,792.157043 423.553131,783.375488 
	C420.995209,774.229187 425.263306,765.282532 433.422241,762.734314 
	C434.529144,762.388611 435.675537,762.169312 437.221344,761.849670 
M441.979492,789.537537 
	C448.583710,785.580566 450.480896,776.768188 446.020660,770.586792 
	C444.146454,767.989380 441.489777,766.497253 438.343323,766.677673 
	C434.519287,766.896851 431.141815,768.378906 429.591248,772.264465 
	C427.559235,777.356262 427.474731,782.512939 430.975342,786.933044 
	C433.513458,790.137817 437.155609,791.315369 441.979492,789.537537 
z"/>
<path fill="#000000" opacity="1.000000" stroke="none" 
	d="
M214.260376,788.614746 
	C213.831024,786.603821 212.423676,784.588318 214.929871,783.551025 
	C217.205566,782.609192 218.047119,784.369202 219.063873,786.033813 
	C221.345276,789.768799 227.021057,791.223022 230.914307,789.242493 
	C232.303421,788.535889 233.411911,787.539673 233.546631,785.857666 
	C233.707596,783.847534 232.413162,782.704712 230.802216,782.121155 
	C227.836197,781.046692 224.771225,780.248657 221.765030,779.280945 
	C217.436249,777.887573 214.248993,775.467407 214.671600,770.366760 
	C215.080994,765.425537 218.423828,763.223389 222.842514,762.226196 
	C230.531296,760.491089 236.582001,764.184326 237.683487,771.465393 
	C235.587677,772.723450 233.823608,772.877869 232.476028,770.269958 
	C231.488266,768.358398 229.775620,767.357910 227.677933,767.061218 
	C224.414719,766.599609 220.689743,766.383057 219.874939,770.311340 
	C219.141739,773.846313 222.893066,774.024353 225.306274,774.810974 
	C227.836365,775.635803 230.483383,776.126160 232.969131,777.056946 
	C236.518295,778.385803 238.914001,781.001282 239.050003,784.862122 
	C239.191528,788.880005 237.002411,791.760742 233.429016,793.586060 
	C226.719055,797.013611 219.033600,795.141663 214.260376,788.614746 
z"/>
<path fill="#000000" opacity="1.000000" stroke="none" 
	d="
M647.973633,783.082886 
	C650.126465,777.443787 652.097717,772.146912 654.172607,766.891052 
	C654.946716,764.930115 655.520142,762.792358 658.402954,762.675659 
	C661.281799,762.559021 662.095276,764.542603 662.912109,766.529480 
	C666.562195,775.407166 670.142578,784.313599 673.814941,793.374573 
	C670.078918,795.424988 668.245544,794.424805 666.942017,791.068726 
	C664.889282,785.783630 659.165161,783.453003 653.889954,785.482422 
	C651.444397,786.423340 651.413574,788.893250 650.687866,790.808105 
	C649.561035,793.781250 648.036621,795.347473 644.495972,793.702332 
	C644.709595,789.993774 646.899597,786.903809 647.973633,783.082886 
M660.799561,774.667908 
	C660.135437,773.020935 659.471313,771.373962 658.572815,769.145874 
	C657.192627,773.164734 656.035767,776.533447 654.839050,780.018005 
	C657.510376,780.968323 659.702271,780.938110 661.902527,780.180603 
	C662.503479,778.323242 661.480957,776.889526 660.799561,774.667908 
z"/>
<path fill="#000000" opacity="1.000000" stroke="none" 
	d="
M340.570862,794.308655 
	C334.506775,794.365173 328.888092,794.365173 322.698059,794.365173 
	C322.698059,784.477356 322.690521,774.914185 322.705750,765.350952 
	C322.708221,763.812683 323.393188,762.822449 325.083221,762.835449 
	C327.468323,762.853821 327.606323,764.562622 327.612152,766.289490 
	C327.633453,772.593262 327.591492,778.897400 327.642120,785.200806 
	C327.652466,786.489624 327.960297,787.776001 328.150330,789.209473 
	C332.075623,790.185730 335.902161,789.460693 339.665680,789.740479 
	C340.828857,789.827026 342.072174,789.842041 342.557007,791.193176 
	C343.098969,792.703430 342.599426,793.771179 340.570862,794.308655 
z"/>
</svg>